<svg width="50" height="50" viewBox="0 0 50 50" fill="none" xmlns="http://www.w3.org/2000/svg">
<path d="M15.7063 46.8752C34.575 46.8752 44.8969 31.2408 44.8969 17.7065C44.8969 17.269 44.8969 16.8252 44.8781 16.3877C46.8877 14.933 48.6221 13.1319 50 11.069C48.1229 11.8966 46.1336 12.4421 44.0969 12.6877C46.2423 11.4053 47.8491 9.38761 48.6187 7.00959C46.6031 8.20373 44.3969 9.04201 42.0969 9.48771C40.5506 7.84091 38.5044 6.74996 36.2753 6.38383C34.0461 6.0177 31.7585 6.39684 29.7667 7.46252C27.7749 8.52819 26.19 10.2209 25.2577 12.2785C24.3253 14.3361 24.0974 16.6438 24.6094 18.844C20.5304 18.6394 16.5401 17.5798 12.897 15.7338C9.25397 13.8878 6.03964 11.2966 3.4625 8.12834C2.15419 10.388 1.75492 13.0608 2.34577 15.6042C2.93662 18.1475 4.4733 20.3706 6.64375 21.8221C5.01731 21.7668 3.42663 21.3301 2 20.5471V20.6877C2.0028 23.0548 2.82284 25.3484 4.32148 27.1807C5.82013 29.013 7.90546 30.2717 10.225 30.744C9.34457 30.9865 8.43509 31.1074 7.52188 31.1033C6.87807 31.1053 6.23556 31.0456 5.60313 30.9252C6.25871 32.9629 7.53523 34.7445 9.2539 36.0205C10.9726 37.2964 13.0473 38.0029 15.1875 38.0408C11.5517 40.8965 7.06063 42.4452 2.4375 42.4377C1.62288 42.4412 0.808822 42.3942 0 42.2971C4.69223 45.2885 10.1416 46.8769 15.7063 46.8752Z" fill="#00ADB5"/>
</svg>
