<svg width="50" height="50" viewBox="0 0 50 50" fill="none" xmlns="http://www.w3.org/2000/svg">
<path d="M40.8776 32.8802C39.6559 32.8802 38.4952 33.3587 37.6196 34.2241C36.744 35.0997 36.2553 36.24 36.2553 37.4617C36.2553 38.6835 36.7339 39.8238 37.6196 40.6994C38.5054 41.5648 39.6559 42.0433 40.8776 42.0433C43.3822 42.0433 45.4184 39.9867 45.4184 37.4617C45.4184 34.9368 43.3822 32.8802 40.8776 32.8802ZM40.8776 40.007C39.4726 40.007 38.2916 38.8464 38.2916 37.4617C38.2916 36.0771 39.4726 34.9164 40.8776 34.9164C42.2623 34.9164 43.3822 36.0567 43.3822 37.4617C43.3822 38.8667 42.2623 40.007 40.8776 40.007ZM42.0586 17.6185C41.8754 17.4454 41.631 17.3538 41.3765 17.3538H36.1535C35.5936 17.3538 35.1354 17.812 35.1354 18.3719V26.7205C35.1354 27.2805 35.5936 27.7387 36.1535 27.7387H44.4411C45.001 27.7387 45.4592 27.2805 45.4592 26.7205V21.131C45.4592 20.846 45.337 20.5711 45.1232 20.3776L42.0586 17.6185ZM43.4229 25.7024H37.1717V19.3799H40.9794L43.4229 21.579V25.7024ZM16.0151 32.8802C14.7933 32.8802 13.6327 33.3587 12.7571 34.2241C11.8815 35.0997 11.3928 36.24 11.3928 37.4617C11.3928 38.6835 11.8713 39.8238 12.7571 40.6994C13.6428 41.5648 14.7933 42.0433 16.0151 42.0433C18.5196 42.0433 20.5559 39.9867 20.5559 37.4617C20.5559 34.9368 18.5196 32.8802 16.0151 32.8802ZM16.0151 40.007C14.6101 40.007 13.429 38.8464 13.429 37.4617C13.429 36.0771 14.6101 34.9164 16.0151 34.9164C17.3997 34.9164 18.5196 36.0567 18.5196 37.4617C18.5196 38.8667 17.3997 40.007 16.0151 40.007ZM9.22419 34.1325H7.17776V31.4243C7.17776 30.8643 6.71961 30.4061 6.15964 30.4061C5.59967 30.4061 5.14152 30.8643 5.14152 31.4243V35.1506C5.14152 35.7106 5.59967 36.1687 6.15964 36.1687H9.22419C9.78416 36.1687 10.2423 35.7106 10.2423 35.1506C10.2423 34.5906 9.78416 34.1325 9.22419 34.1325ZM14.3861 28.5837C14.3861 28.0237 13.9279 27.5656 13.3679 27.5656H1.01812C0.458155 27.5656 0 28.0237 0 28.5837C0 29.1437 0.458155 29.6018 1.01812 29.6018H13.3679C13.9279 29.6018 14.3861 29.1538 14.3861 28.5837ZM3.08491 24.9083L15.4347 24.9796C15.9947 24.9796 16.4529 24.5316 16.463 23.9716C16.4732 23.4015 16.0151 22.9433 15.4551 22.9433L3.10527 22.872C3.09509 22.872 3.09509 22.872 3.09509 22.872C2.53513 22.872 2.07697 23.32 2.07697 23.88C2.06679 24.4501 2.52494 24.9083 3.08491 24.9083ZM5.16188 20.286H17.5117C18.0717 20.286 18.5298 19.8278 18.5298 19.2679C18.5298 18.7079 18.0717 18.2498 17.5117 18.2498H5.16188C4.60191 18.2498 4.14376 18.7079 4.14376 19.2679C4.14376 19.8278 4.60191 20.286 5.16188 20.286ZM49.6233 18.9115L42.3335 12.8741C42.1503 12.7214 41.9263 12.6399 41.6819 12.6399H33.1093V8.97467C33.1093 8.4147 32.6512 7.95654 32.0912 7.95654H6.15964C5.59967 7.95654 5.14152 8.4147 5.14152 8.97467V16.4273C5.14152 16.9873 5.59967 17.4454 6.15964 17.4454C6.71961 17.4454 7.17776 16.9873 7.17776 16.4273V9.99279H31.0833V34.1325H22.7347C22.1747 34.1325 21.7166 34.5906 21.7166 35.1506C21.7166 35.7106 22.1747 36.1687 22.7347 36.1687H35.166C35.7259 36.1687 36.1841 35.7106 36.1841 35.1506C36.1841 34.5906 35.7259 34.1325 35.166 34.1325H33.1195V14.6762H41.3256L47.9638 20.174L47.8925 34.1121H46.8336C46.2737 34.1121 45.8155 34.5703 45.8155 35.1302C45.8155 35.6902 46.2737 36.1483 46.8336 36.1483H48.9004C49.4604 36.1483 49.9185 35.7004 49.9185 35.1404L50 19.7057C49.9898 19.4002 49.8575 19.105 49.6233 18.9115Z" fill="#00ADB5"/>
</svg>
