<svg width="45" height="47" viewBox="0 0 45 47" fill="none" xmlns="http://www.w3.org/2000/svg">
<path d="M44.25 33.4621H43.5V15.0268C43.5026 14.1077 43.3294 13.1972 42.9904 12.348C42.6514 11.4989 42.1534 10.7279 41.5252 10.0799L39 7.45971V0.778188C39 0.5718 38.921 0.373864 38.7803 0.227926C38.6397 0.0819874 38.4489 0 38.25 0H0.75C0.551088 0 0.360322 0.0819874 0.21967 0.227926C0.0790176 0.373864 0 0.5718 0 0.778188V21.0111C0 21.2175 0.0790176 21.4154 0.21967 21.5613C0.360322 21.7073 0.551088 21.7893 0.75 21.7893H1.5V28.7929C1.49485 30.3093 1.78352 31.8113 2.34888 33.2096C2.91423 34.6079 3.74472 35.8741 4.791 36.9328L13.7123 46.4578C13.7821 46.5324 13.8657 46.5917 13.9581 46.6322C14.0505 46.6727 14.1497 46.6935 14.25 46.6935C14.3503 46.6935 14.4495 46.6727 14.5419 46.6322C14.6343 46.5917 14.7179 46.5324 14.7877 46.4578L23.7052 36.939C24.7529 35.8799 25.5845 34.6129 26.1505 33.2134C26.7165 31.8139 27.0054 30.3106 27 28.7929V21.7893H28.5V29.5711C28.4998 30.2966 28.6399 31.0147 28.9118 31.683C29.1837 32.3513 29.5821 32.9563 30.0833 33.4621H29.25C29.0511 33.4621 28.8603 33.5441 28.7197 33.69C28.579 33.8359 28.5 34.0339 28.5 34.2403V38.9094C28.5 39.1158 28.579 39.3137 28.7197 39.4596C28.8603 39.6056 29.0511 39.6876 29.25 39.6876H44.25C44.4489 39.6876 44.6397 39.6056 44.7803 39.4596C44.921 39.3137 45 39.1158 45 38.9094V34.2403C45 34.0339 44.921 33.8359 44.7803 33.69C44.6397 33.5441 44.4489 33.4621 44.25 33.4621ZM25.5 28.7929C25.5032 30.1074 25.2514 31.4091 24.7596 32.6205C24.2677 33.8319 23.546 34.9282 22.6372 35.8441L14.25 44.7964L5.86275 35.8441L5.85525 35.8363C4.94849 34.9209 4.22843 33.8256 3.73792 32.6156C3.24741 31.4056 2.99646 30.1056 3 28.7929V19.994L14.25 15.6167L25.5 19.994V28.7929ZM14.5133 14.0564C14.4557 14.0382 14.3963 14.0272 14.3363 14.0237C13.7913 13.0777 13.5024 11.9967 13.5 10.8946C13.4972 9.75096 13.7981 8.62861 14.3697 7.65072C14.9413 6.67283 15.7614 5.8772 16.7401 5.35114C17.7188 4.82508 18.8183 4.58891 19.9179 4.66857C21.0174 4.74822 22.0746 5.14061 22.9734 5.80267C23.8721 6.46474 24.5778 7.37089 25.0128 8.4217C25.4479 9.47251 25.5956 10.6274 25.4397 11.7595C25.2837 12.8917 24.8303 13.9574 24.129 14.8398C23.4277 15.7221 22.5058 16.387 21.4642 16.7614L14.5133 14.0564ZM26.5133 18.7255L23.43 17.5263C24.6786 16.7331 25.6765 15.5785 26.301 14.2046C26.9256 12.8307 27.1495 11.2974 26.9452 9.79315C26.7409 8.28895 26.1174 6.87948 25.1513 5.73811C24.1852 4.59673 22.9187 3.7732 21.5075 3.36882C20.0963 2.96444 18.6019 2.99683 17.2082 3.46201C15.8145 3.92719 14.5822 4.80488 13.6629 5.98713C12.7436 7.16937 12.1774 8.60462 12.0338 10.1164C11.8903 11.6281 12.1757 13.1504 12.855 14.4961L1.98675 18.7255C1.8437 18.7812 1.72044 18.8808 1.63345 19.0111C1.54646 19.1414 1.4999 19.2962 1.5 19.4547V1.55638H37.5V19.208L32.0625 13.8875C31.4915 13.3216 30.732 13.0064 29.9424 13.0077C29.1528 13.009 28.3942 13.3268 27.825 13.8945C27.265 14.4806 26.9509 15.2724 26.9509 16.0976C26.9509 16.9228 27.265 17.7146 27.825 18.3006L29.6895 20.2329H27V19.4547C27.0001 19.2962 26.9535 19.1414 26.8666 19.0111C26.7796 18.8808 26.6563 18.7812 26.5133 18.7255ZM30 29.5711V21.7893H31.1895L34.7197 25.4522L35.7803 24.3518L28.8877 17.2003C28.7491 17.0548 28.6394 16.8824 28.5649 16.693C28.4904 16.5035 28.4527 16.3007 28.4537 16.0961C28.4559 15.6828 28.6162 15.2874 28.8994 14.9968C29.1825 14.7063 29.5653 14.5443 29.9636 14.5465C30.3619 14.5488 30.7429 14.7151 31.023 15.0089L37.7355 21.5776C37.8421 21.6819 37.9758 21.7515 38.12 21.7778C38.2643 21.8041 38.4128 21.7861 38.5473 21.7258C38.6818 21.6656 38.7963 21.5658 38.8768 21.4388C38.9572 21.3117 39.0001 21.1631 39 21.0111V9.66042L40.4647 11.1802C40.953 11.6842 41.3402 12.2837 41.6037 12.944C41.8672 13.6042 42.0019 14.3122 42 15.0268V33.4621H33.75C32.7558 33.4608 31.8027 33.0505 31.0997 32.3211C30.3967 31.5917 30.0012 30.6027 30 29.5711ZM43.5 38.1312H30V35.0184H43.5V38.1312Z" fill="#00ADB5"/>
<path d="M13.9613 17.1801L4.96128 21.071C4.82467 21.1302 4.70797 21.2299 4.62589 21.3577C4.54381 21.4855 4.50002 21.6357 4.50003 21.7893V28.6817C4.49693 29.8064 4.70891 30.9205 5.12371 31.9596C5.53851 32.9987 6.14788 33.9421 6.91653 34.7352L13.7198 41.7941C13.8604 41.94 14.0511 42.0219 14.25 42.0219C14.4489 42.0219 14.6396 41.94 14.7802 41.7941L21.5835 34.7352C22.3521 33.9421 22.9615 32.9987 23.3763 31.9596C23.7911 30.9205 24.0031 29.8064 24 28.6817V21.7893C24 21.6357 23.9562 21.4855 23.8741 21.3577C23.792 21.2299 23.6753 21.1302 23.5387 21.071L14.5387 17.1801C14.4473 17.1405 14.3491 17.1201 14.25 17.1201C14.1509 17.1201 14.0527 17.1405 13.9613 17.1801ZM22.5 22.3083V28.6817C22.5024 29.6019 22.329 30.5135 21.9896 31.3637C21.6503 32.2139 21.1518 32.9858 20.523 33.6348L14.25 40.1435L7.97702 33.6348C7.34824 32.9858 6.84975 32.2139 6.5104 31.3637C6.17105 30.5135 5.99758 29.6019 6.00003 28.6817V22.3083L14.25 18.7411L22.5 22.3083Z" fill="#00ADB5"/>
<path d="M3 3.89098V7.00372H4.5V4.66917H6.75V3.11279H3.75C3.55109 3.11279 3.36032 3.19478 3.21967 3.34072C3.07902 3.48666 3 3.68459 3 3.89098Z" fill="#00ADB5"/>
<path d="M34.5 7.00372H36V3.89098C36 3.68459 35.921 3.48666 35.7803 3.34072C35.6397 3.19478 35.4489 3.11279 35.25 3.11279H32.25V4.66917H34.5V7.00372Z" fill="#00ADB5"/>
<path d="M12.1289 28.6045L11.0684 29.7048L13.7204 32.4557C13.861 32.6016 14.0517 32.6835 14.2506 32.6835C14.4495 32.6835 14.6402 32.6016 14.7809 32.4557L21.1447 25.8528L20.0841 24.7524L14.2506 30.8052L12.1289 28.6045Z" fill="#00ADB5"/>
</svg>
