<svg width="45" height="53" viewBox="0 0 45 53" fill="none" xmlns="http://www.w3.org/2000/svg">
<path d="M44.9916 51.258L41.0399 12.8978C40.957 12.0947 40.293 11.485 39.5008 11.485H32.0735V9.75877C32.0735 4.37798 27.7787 0 22.5002 0C17.2213 0 12.9265 4.37798 12.9265 9.75877V11.485H5.49916C4.707 11.485 4.04297 12.0947 3.96006 12.8978L0.00840153 51.258C-0.037216 51.7024 0.104397 52.146 0.397538 52.4784C0.691077 52.8104 1.10917 53 1.5475 53H43.4521C43.8908 53 44.3089 52.8104 44.6021 52.4784C44.896 52.146 45.0372 51.7024 44.9916 51.258ZM16.0213 9.75877C16.0213 6.11753 18.9277 3.1548 22.5002 3.1548C26.0722 3.1548 28.9787 6.11753 28.9787 9.75877V11.485H16.0213V9.75877ZM3.26589 49.8452L6.89267 14.6398H12.9265V18.116C12.9265 18.987 13.6195 19.6934 14.4739 19.6934C15.3283 19.6934 16.0213 18.987 16.0213 18.116V14.6398H28.9787V18.116C28.9787 18.987 29.6717 19.6934 30.5261 19.6934C31.3805 19.6934 32.0735 18.987 32.0735 18.116V14.6398H38.1073L41.7341 49.8452H3.26589Z" fill="#393E46"/>
</svg>
