<svg width="50" height="41" viewBox="0 0 50 41" fill="none" xmlns="http://www.w3.org/2000/svg">
<path d="M40.8776 30.1733C39.6559 30.1733 38.4952 30.7339 37.6196 31.7477C36.744 32.7734 36.2553 34.1092 36.2553 35.5405C36.2553 36.9717 36.7339 38.3075 37.6196 39.3333C38.5054 40.3471 39.6559 40.9076 40.8776 40.9076C43.3822 40.9076 45.4184 38.4984 45.4184 35.5405C45.4184 32.5826 43.3822 30.1733 40.8776 30.1733ZM40.8776 38.5222C39.4726 38.5222 38.2916 37.1626 38.2916 35.5405C38.2916 33.9184 39.4726 32.5587 40.8776 32.5587C42.2623 32.5587 43.3822 33.8946 43.3822 35.5405C43.3822 37.1864 42.2623 38.5222 40.8776 38.5222ZM42.0586 12.2948C41.8754 12.092 41.631 11.9847 41.3765 11.9847H36.1535C35.5936 11.9847 35.1354 12.5214 35.1354 13.1774V22.9575C35.1354 23.6135 35.5936 24.1502 36.1535 24.1502H44.4411C45.001 24.1502 45.4592 23.6135 45.4592 22.9575V16.4096C45.4592 16.0756 45.337 15.7536 45.1232 15.527L42.0586 12.2948ZM43.4229 21.7648H37.1717V14.3582H40.9794L43.4229 16.9344V21.7648ZM16.0151 30.1733C14.7933 30.1733 13.6327 30.7339 12.7571 31.7477C11.8815 32.7734 11.3928 34.1092 11.3928 35.5405C11.3928 36.9717 11.8713 38.3075 12.7571 39.3333C13.6428 40.3471 14.7933 40.9076 16.0151 40.9076C18.5196 40.9076 20.5559 38.4984 20.5559 35.5405C20.5559 32.5826 18.5196 30.1733 16.0151 30.1733ZM16.0151 38.5222C14.6101 38.5222 13.429 37.1626 13.429 35.5405C13.429 33.9184 14.6101 32.5587 16.0151 32.5587C17.3997 32.5587 18.5196 33.8946 18.5196 35.5405C18.5196 37.1864 17.3997 38.5222 16.0151 38.5222ZM9.22419 31.6404H7.17776V28.4678C7.17776 27.8118 6.71961 27.2751 6.15964 27.2751C5.59967 27.2751 5.14152 27.8118 5.14152 28.4678V32.8331C5.14152 33.489 5.59967 34.0258 6.15964 34.0258H9.22419C9.78416 34.0258 10.2423 33.489 10.2423 32.8331C10.2423 32.1771 9.78416 31.6404 9.22419 31.6404ZM14.3861 25.1402C14.3861 24.4842 13.9279 23.9475 13.3679 23.9475H1.01812C0.458155 23.9475 0 24.4842 0 25.1402C0 25.7961 0.458155 26.3329 1.01812 26.3329H13.3679C13.9279 26.3329 14.3861 25.8081 14.3861 25.1402ZM3.08491 20.8345L15.4347 20.918C15.9947 20.918 16.4529 20.3932 16.463 19.7372C16.4732 19.0693 16.0151 18.5326 15.4551 18.5326L3.10527 18.4491C3.09509 18.4491 3.09509 18.4491 3.09509 18.4491C2.53513 18.4491 2.07697 18.9739 2.07697 19.6299C2.06679 20.2978 2.52494 20.8345 3.08491 20.8345ZM5.16188 15.4197H17.5117C18.0717 15.4197 18.5298 14.8829 18.5298 14.227C18.5298 13.571 18.0717 13.0343 17.5117 13.0343H5.16188C4.60191 13.0343 4.14376 13.571 4.14376 14.227C4.14376 14.8829 4.60191 15.4197 5.16188 15.4197ZM49.6233 13.8095L42.3335 6.73681C42.1503 6.5579 41.9263 6.46249 41.6819 6.46249H33.1093V2.16877C33.1093 1.51279 32.6512 0.976074 32.0912 0.976074H6.15964C5.59967 0.976074 5.14152 1.51279 5.14152 2.16877V10.8993C5.14152 11.5553 5.59967 12.092 6.15964 12.092C6.71961 12.092 7.17776 11.5553 7.17776 10.8993V3.36147H31.0833V31.6404H22.7347C22.1747 31.6404 21.7166 32.1771 21.7166 32.8331C21.7166 33.489 22.1747 34.0258 22.7347 34.0258H35.166C35.7259 34.0258 36.1841 33.489 36.1841 32.8331C36.1841 32.1771 35.7259 31.6404 35.166 31.6404H33.1195V8.84789H41.3256L47.9638 15.2885L47.8925 31.6165H46.8336C46.2737 31.6165 45.8155 32.1532 45.8155 32.8092C45.8155 33.4652 46.2737 34.0019 46.8336 34.0019H48.9004C49.4604 34.0019 49.9185 33.4771 49.9185 32.8211L50 14.7398C49.9898 14.382 49.8575 14.0361 49.6233 13.8095Z" fill="white"/>
</svg>
