<svg width="50" height="41" viewBox="0 0 50 41" fill="none" xmlns="http://www.w3.org/2000/svg">
<path d="M48.4933 29.5835H47.6713V13.818C47.6742 13.032 47.4843 12.2533 47.1129 11.5271C46.7414 10.8009 46.1956 10.1416 45.5072 9.58743L42.7398 7.34671V1.63278C42.7398 1.45628 42.6532 1.28701 42.4991 1.1622C42.345 1.0374 42.1359 0.967285 41.9179 0.967285H0.82192C0.603933 0.967285 0.394875 1.0374 0.240735 1.1622C0.0865948 1.28701 0 1.45628 0 1.63278V18.9356C0 19.1121 0.0865948 19.2814 0.240735 19.4062C0.394875 19.531 0.603933 19.6011 0.82192 19.6011H1.64384V25.5906C1.63819 26.8873 1.95455 28.1718 2.57412 29.3676C3.19368 30.5634 4.10381 31.6462 5.25042 32.5516L15.0272 40.6973C15.1038 40.7611 15.1954 40.8118 15.2966 40.8464C15.3978 40.881 15.5066 40.8989 15.6165 40.8989C15.7264 40.8989 15.8351 40.881 15.9364 40.8464C16.0376 40.8118 16.1292 40.7611 16.2058 40.6973L25.9784 32.5569C27.1265 31.6512 28.0379 30.5677 28.6582 29.3709C29.2785 28.1741 29.5951 26.8885 29.5891 25.5906V19.6011H31.233V26.256C31.2328 26.8764 31.3862 27.4905 31.6842 28.0621C31.9823 28.6336 32.4188 29.1509 32.968 29.5835H32.0549C31.8369 29.5835 31.6278 29.6536 31.4737 29.7784C31.3195 29.9032 31.233 30.0725 31.233 30.249V34.242C31.233 34.4185 31.3195 34.5877 31.4737 34.7125C31.6278 34.8374 31.8369 34.9075 32.0549 34.9075H48.4933C48.7113 34.9075 48.9203 34.8374 49.0745 34.7125C49.2286 34.5877 49.3152 34.4185 49.3152 34.242V30.249C49.3152 30.0725 49.2286 29.9032 49.0745 29.7784C48.9203 29.6536 48.7113 29.5835 48.4933 29.5835ZM27.9453 25.5906C27.9488 26.7147 27.6728 27.8279 27.1338 28.8638C26.5948 29.8998 25.8039 30.8373 24.808 31.6206L15.6165 39.2764L6.42495 31.6206L6.41673 31.6139C5.42301 30.8311 4.63391 29.8944 4.09636 28.8597C3.55881 27.8249 3.2838 26.7131 3.28768 25.5906V18.0658L15.6165 14.3224L27.9453 18.0658V25.5906ZM15.905 12.9881C15.8419 12.9725 15.7768 12.9631 15.711 12.9601C15.1138 12.1512 14.7972 11.2267 14.7946 10.2842C14.7915 9.30615 15.1213 8.34633 15.7477 7.51006C16.374 6.67378 17.2728 5.99337 18.3454 5.54349C19.4179 5.09361 20.6228 4.89165 21.8278 4.95977C23.0328 5.02788 24.1914 5.36345 25.1763 5.92964C26.1613 6.49582 26.9346 7.27075 27.4114 8.16939C27.8882 9.06803 28.05 10.0556 27.8791 11.0239C27.7083 11.9921 27.2113 12.9035 26.4428 13.658C25.6743 14.4126 24.6639 14.9812 23.5225 15.3014L15.905 12.9881ZM29.0557 16.9811L25.6768 15.9555C27.0451 15.2772 28.1387 14.2898 28.8231 13.1149C29.5075 11.9399 29.7529 10.6286 29.529 9.34223C29.3052 8.05586 28.6219 6.85051 27.5632 5.87442C26.5044 4.89833 25.1164 4.19407 23.5699 3.84825C22.0234 3.50243 20.3857 3.53013 18.8584 3.92794C17.331 4.32576 15.9806 5.07634 14.9731 6.08738C13.9656 7.09842 13.3451 8.32582 13.1878 9.61864C13.0305 10.9115 13.3433 12.2133 14.0877 13.3641L2.17727 16.9811C2.0205 17.0286 1.88541 17.1138 1.79009 17.2253C1.69476 17.3367 1.64373 17.4691 1.64384 17.6046V2.29827H41.096V17.3937L35.1371 12.8437C34.5114 12.3597 33.679 12.0902 32.8137 12.0913C31.9484 12.0924 31.117 12.3641 30.4932 12.8497C29.8796 13.3508 29.5353 14.028 29.5353 14.7337C29.5353 15.4394 29.8796 16.1165 30.4932 16.6177L32.5365 18.2701H29.5891V17.6046C29.5892 17.4691 29.5382 17.3367 29.4429 17.2253C29.3475 17.1138 29.2125 17.0286 29.0557 16.9811ZM32.8768 26.256V19.6011H34.1804L38.0491 22.7336L39.2113 21.7926L31.6579 15.6767C31.5059 15.5523 31.3857 15.4049 31.3041 15.2428C31.2225 15.0808 31.1811 14.9074 31.1823 14.7324C31.1847 14.379 31.3603 14.0409 31.6706 13.7923C31.9809 13.5438 32.4004 13.4053 32.8369 13.4072C33.2733 13.4092 33.691 13.5514 33.9979 13.8027L41.3541 19.4201C41.4709 19.5093 41.6174 19.5688 41.7755 19.5913C41.9336 19.6138 42.0964 19.5984 42.2437 19.5469C42.3911 19.4953 42.5166 19.41 42.6048 19.3014C42.6929 19.1927 42.7399 19.0656 42.7398 18.9356V9.22872L44.345 10.5284C44.8802 10.9594 45.3044 11.4721 45.5932 12.0368C45.882 12.6014 46.0296 13.2068 46.0275 13.818V29.5835H36.9864C35.8969 29.5825 34.8523 29.2315 34.0819 28.6078C33.3115 27.984 32.8781 27.1382 32.8768 26.256ZM47.6713 33.5765H32.8768V30.9145H47.6713V33.5765Z" fill="white"/>
<path d="M15.3002 15.6597L5.43716 18.9872C5.28744 19.0377 5.15956 19.123 5.06961 19.2323C4.97965 19.3417 4.93166 19.4701 4.93168 19.6014V25.4957C4.92827 26.4575 5.16059 27.4103 5.61516 28.299C6.06974 29.1876 6.73755 29.9944 7.5799 30.6726L15.0355 36.7093C15.1897 36.834 15.3987 36.9041 15.6166 36.9041C15.8346 36.9041 16.0436 36.834 16.1977 36.7093L23.6534 30.6726C24.4957 29.9944 25.1635 29.1876 25.6181 28.299C26.0727 27.4103 26.305 26.4575 26.3016 25.4957V19.6014C26.3016 19.4701 26.2536 19.3417 26.1637 19.2323C26.0737 19.123 25.9458 19.0377 25.7961 18.9872L15.9331 15.6597C15.8328 15.6258 15.7253 15.6084 15.6166 15.6084C15.508 15.6084 15.4005 15.6258 15.3002 15.6597ZM24.6578 20.0453V25.4957C24.6604 26.2827 24.4703 27.0622 24.0984 27.7893C23.7266 28.5164 23.1803 29.1766 22.4912 29.7316L15.6166 35.2977L8.7421 29.7316C8.05302 29.1766 7.50672 28.5164 7.13483 27.7893C6.76294 27.0622 6.57283 26.2827 6.57552 25.4957V20.0453L15.6166 16.9947L24.6578 20.0453Z" fill="white"/>
<path d="M3.28809 4.2944V6.95638H4.93193V4.95989H7.39771V3.62891H4.11001C3.89202 3.62891 3.68296 3.69902 3.52882 3.82382C3.37468 3.94863 3.28809 4.1179 3.28809 4.2944Z" fill="white"/>
<path d="M37.8085 6.95638H39.4524V4.2944C39.4524 4.1179 39.3658 3.94863 39.2117 3.82382C39.0575 3.69902 38.8485 3.62891 38.6305 3.62891H35.3428V4.95989H37.8085V6.95638Z" fill="white"/>
<path d="M13.2911 25.4294L12.1289 26.3705L15.0352 28.723C15.1893 28.8477 15.3983 28.9178 15.6163 28.9178C15.8342 28.9178 16.0432 28.8477 16.1974 28.723L23.1713 23.0763L22.0091 22.1353L15.6163 27.3115L13.2911 25.4294Z" fill="white"/>
</svg>
