<svg width="30" height="30" viewBox="0 0 30 30" fill="none" xmlns="http://www.w3.org/2000/svg">
<path d="M9.42375 28.1263C20.745 28.1263 26.9381 18.7457 26.9381 10.625C26.9381 10.3625 26.9381 10.0963 26.9269 9.8338C28.1326 8.96096 29.1732 7.88033 30 6.64255C28.8737 7.13914 27.6802 7.46644 26.4581 7.6138C27.7454 6.84437 28.7095 5.63374 29.1712 4.20692C27.9619 4.92341 26.6382 5.42637 25.2581 5.6938C24.3303 4.70572 23.1026 4.05115 21.7652 3.83147C20.4277 3.61179 19.0551 3.83928 17.86 4.47868C16.6649 5.11809 15.714 6.13373 15.1546 7.36829C14.5952 8.60285 14.4585 9.98742 14.7656 11.3076C12.3183 11.1848 9.92403 10.5491 7.73821 9.44144C5.55238 8.33383 3.62378 6.77913 2.0775 4.87817C1.29251 6.23396 1.05295 7.83768 1.40746 9.36367C1.76197 10.8897 2.68398 12.2235 3.98625 13.0944C3.01039 13.0613 2.05598 12.7992 1.2 12.3294V12.4138C1.20168 13.8341 1.6937 15.2102 2.59289 16.3096C3.49208 17.409 4.74328 18.1642 6.135 18.4476C5.60674 18.5931 5.06106 18.6656 4.51313 18.6632C4.12684 18.6643 3.74134 18.6286 3.36187 18.5563C3.75522 19.7789 4.52114 20.8479 5.55234 21.6134C6.58354 22.379 7.82838 22.8029 9.1125 22.8257C6.93104 24.5391 4.23638 25.4683 1.4625 25.4638C0.973726 25.4659 0.485293 25.4377 0 25.3794C2.81534 27.1743 6.08493 28.1273 9.42375 28.1263V28.1263Z" fill="white"/>
</svg>
