<svg width="250" height="250" viewBox="0 0 250 250" fill="none" xmlns="http://www.w3.org/2000/svg">
<g clip-path="url(#clip0_103:60)">
<path d="M241.566 57.5766L216.039 47.2774C214.48 39.0367 208.217 32.4389 200.159 30.3912L198.778 14.4827C198.581 12.2134 197.058 10.2764 194.9 9.54952C192.74 8.82259 190.356 9.44258 188.826 11.1307L182.148 18.4968L178.05 4.15482C177.368 1.76652 175.223 0.0898649 172.741 0.00329517C170.26 -0.0737264 168.003 1.44061 167.156 3.77672L131.805 101.301C106.375 107.905 84.1693 124.177 70.5302 146.32C58.0374 166.602 54.157 189.838 59.6039 211.748C62.7873 224.553 68.8312 232.991 75.014 238.524H70.1514C70.1056 238.524 70.0597 238.525 70.0139 238.526C47.0125 239.087 25.6966 226.009 15.743 205.23C14.3763 202.377 10.9549 201.172 8.1013 202.538C5.24768 203.906 4.0427 207.326 5.41 210.18C17.0651 234.512 41.7425 250 68.6097 250C69.1457 250 177.986 250 177.986 250C181.15 250 183.715 247.435 183.715 244.271C183.715 228.85 171.415 221.822 160.559 219.242C165.635 209.346 166.074 200.643 165.498 194.95L166.996 194.75L201.333 247.4C202.39 249.022 204.195 249.999 206.131 249.999H226.981C229.067 249.999 230.989 248.865 231.997 247.039C233.005 245.213 232.94 242.982 231.828 241.217C231.606 240.866 210.08 206.687 198.508 187.551V91.2898C200.211 91.4859 202.124 91.5845 203.813 91.5845C220.433 91.5845 236.063 82.2083 244.479 65.583C244.486 65.5697 244.701 65.119 244.736 65.0324C245.92 62.0986 244.501 58.76 241.566 57.5766Z" fill="#AAD8D3"/>
</g>
<defs>
<clipPath id="clip0_103:60">
<rect width="250" height="250" fill="white"/>
</clipPath>
</defs>
</svg>
