<svg width="250" height="250" viewBox="0 0 250 250" fill="none" xmlns="http://www.w3.org/2000/svg">
<g clip-path="url(#clip0_103:22)">
<path d="M125 179.167C127.301 179.167 129.167 177.302 129.167 175.001C129.167 172.699 127.301 170.834 125 170.834C122.699 170.834 120.833 172.699 120.833 175.001C120.833 177.302 122.699 179.167 125 179.167Z" fill="#AAD8D3"/>
<path d="M150 150.001H100C95.4033 150.015 91.6804 153.738 91.6667 158.334V191.668C91.6804 196.264 95.4033 199.987 100 200.001H150C154.597 199.987 158.32 196.264 158.333 191.668V158.334C158.32 153.738 154.597 150.015 150 150.001ZM125 187.501C118.096 187.501 112.5 181.905 112.5 175.001C112.5 168.097 118.096 162.501 125 162.501C131.904 162.501 137.5 168.097 137.5 175.001C137.5 181.905 131.904 187.501 125 187.501Z" fill="#AAD8D3"/>
<path d="M27.2917 142.917C23.9498 147.299 22.1351 152.655 22.1251 158.167V199.75C22.1251 206.654 27.7215 212.25 34.6251 212.25C41.5286 212.25 47.1251 206.654 47.1251 199.75V158.167L75.0001 121.917L50.7084 112.5L27.2917 142.917Z" fill="#AAD8D3"/>
<path d="M227.875 199.75V158.167C227.865 152.655 226.05 147.299 222.708 142.917L199.292 112.5L175 121.917L202.875 158.167V199.75C202.875 206.654 208.472 212.25 215.375 212.25C222.279 212.25 227.875 206.654 227.875 199.75Z" fill="#AAD8D3"/>
<path d="M15.9834 8.2752L62.5001 16.0294V25.0002H58.3334C56.0322 25.0002 54.1667 26.8657 54.1667 29.1669V37.5002H79.1667V29.1669C79.1667 26.8657 77.3012 25.0002 75.0001 25.0002H70.8334V16.0294L117.35 8.2752C118.855 8.07129 120.13 7.06487 120.677 5.64843C121.225 4.232 120.958 2.62988 119.982 1.46692C119.005 0.303966 117.473 -0.235648 115.983 0.0585333L70.8334 7.58353V4.16687C70.8334 1.86568 68.9679 0.000199784 66.6667 0.000199784C64.3655 0.000199784 62.5001 1.86568 62.5001 4.16687V7.58353L17.35 0.0585333C15.8603 -0.235648 14.3284 0.303966 13.3519 1.46692C12.3754 2.62988 12.1089 4.232 12.6564 5.64843C13.2039 7.06487 14.4786 8.07129 15.9834 8.2752Z" fill="#AAD8D3"/>
<path d="M132.65 8.2752L179.167 16.0294V25.0002H175C172.699 25.0002 170.833 26.8657 170.833 29.1669V37.5002H195.833V29.1669C195.833 26.8657 193.968 25.0002 191.667 25.0002H187.5V16.0294L234.017 8.2752C235.521 8.07129 236.796 7.06487 237.344 5.64843C237.891 4.232 237.625 2.62988 236.648 1.46692C235.672 0.303966 234.14 -0.235648 232.65 0.0585333L187.5 7.58353V4.16687C187.5 1.86568 185.635 0.000199784 183.333 0.000199784C181.032 0.000199784 179.167 1.86568 179.167 4.16687V7.58353L134.017 0.0585333C132.527 -0.235648 130.995 0.303966 130.018 1.46692C129.042 2.62988 128.776 4.232 129.323 5.64843C129.87 7.06487 131.145 8.07129 132.65 8.2752Z" fill="#AAD8D3"/>
<path d="M83.3333 166.668H70.8333C68.5321 166.668 66.6666 168.533 66.6666 170.835V179.168C66.6666 181.469 68.5321 183.335 70.8333 183.335H83.3333V166.668Z" fill="#AAD8D3"/>
<path d="M179.167 183.335C181.468 183.335 183.333 181.469 183.333 179.168V170.835C183.333 168.533 181.468 166.668 179.167 166.668H166.667V183.335H179.167Z" fill="#AAD8D3"/>
<path d="M56.0708 212.67L10.2375 242.337C8.9303 243.119 8.15429 244.553 8.21386 246.075C8.27343 247.597 9.15908 248.966 10.5234 249.644C11.8878 250.321 13.5134 250.201 14.7625 249.329L60.5958 219.662C61.9031 218.879 62.6791 217.446 62.6195 215.924C62.5599 214.401 61.6743 213.033 60.3099 212.355C58.9456 211.677 57.32 211.798 56.0708 212.67Z" fill="#AAD8D3"/>
<path d="M81.0751 196.501L74.6168 200.668C73.3246 201.456 72.5616 202.883 72.6236 204.395C72.6857 205.908 73.5631 207.268 74.9155 207.947C76.2679 208.627 77.8826 208.52 79.1334 207.668L85.5918 203.501C86.8839 202.713 87.6469 201.286 87.5849 199.773C87.5228 198.261 86.6454 196.901 85.293 196.221C83.9406 195.541 82.3259 195.649 81.0751 196.501Z" fill="#AAD8D3"/>
<path d="M239.762 242.337L226.887 234.004C225.638 233.132 224.013 233.011 222.648 233.689C221.284 234.367 220.398 235.735 220.339 237.258C220.279 238.78 221.055 240.213 222.362 240.996L235.237 249.329C236.487 250.201 238.112 250.322 239.477 249.644C240.841 248.966 241.727 247.598 241.786 246.076C241.846 244.553 241.07 243.12 239.762 242.337Z" fill="#AAD8D3"/>
<path d="M207.554 221.504L168.929 196.504C167.68 195.632 166.054 195.511 164.69 196.189C163.326 196.867 162.44 198.235 162.381 199.758C162.321 201.28 163.097 202.713 164.404 203.496L203.029 228.496C204.278 229.368 205.904 229.489 207.268 228.811C208.633 228.133 209.518 226.765 209.578 225.242C209.637 223.72 208.861 222.287 207.554 221.504Z" fill="#AAD8D3"/>
<path d="M125 204.167C122.699 204.167 120.833 206.032 120.833 208.334V245.834C120.833 248.135 122.699 250 125 250C127.301 250 129.167 248.135 129.167 245.834V208.334C129.167 206.032 127.301 204.167 125 204.167Z" fill="#AAD8D3"/>
<path d="M197.792 45.834H52.2084C38.035 45.8102 26.2334 56.704 25.125 70.834H88.0917C89.9858 63.4978 96.59 58.3624 104.167 58.334H145.833C153.41 58.3624 160.014 63.4978 161.908 70.834H224.887C223.755 56.7105 211.96 45.8278 197.792 45.834Z" fill="#AAD8D3"/>
<path d="M207.667 98.417C216.068 95.1854 222.288 87.956 224.229 79.167H161.908C160.014 86.5032 153.41 91.6386 145.833 91.667H104.167C96.59 91.6386 89.9859 86.5032 88.0917 79.167H25.7709C27.765 87.9296 33.9665 95.1374 42.3334 98.417L57.7501 104.417L82.0417 113.834L98.5417 120.25C99.5107 120.632 100.542 120.829 101.583 120.834H108.333V141.667H141.667V120.834H148.417C149.458 120.829 150.489 120.632 151.458 120.25L167.958 113.834L192.25 104.417L207.667 98.417Z" fill="#AAD8D3"/>
<path d="M145.833 83.3327C150.436 83.3327 154.167 79.6017 154.167 74.9993C154.167 70.397 150.436 66.666 145.833 66.666H104.167C99.5643 66.666 95.8333 70.397 95.8333 74.9993C95.8333 79.6017 99.5643 83.3327 104.167 83.3327H145.833Z" fill="#AAD8D3"/>
</g>
<defs>
<clipPath id="clip0_103:22">
<rect width="250" height="250" fill="white"/>
</clipPath>
</defs>
</svg>
