<svg width="250" height="250" viewBox="0 0 250 250" fill="none" xmlns="http://www.w3.org/2000/svg">
<path d="M220.215 131.836H161.621C141.429 131.836 125 115.407 125 95.2148V36.6211C125 34.1133 125.258 31.6646 125.741 29.2969H29.7852C17.6689 29.2969 7.8125 39.1533 7.8125 51.2695V168.945C7.8125 181.062 17.6689 191.406 29.7852 191.406H205.566C217.683 191.406 227.539 181.062 227.539 168.945V131.095C225.171 131.578 222.723 131.836 220.215 131.836ZM44.4336 146.484C40.3887 146.484 37.1094 143.205 37.1094 139.16C37.1094 135.114 40.3887 131.836 44.4336 131.836C48.4785 131.836 51.7578 135.114 51.7578 139.16C51.7578 143.205 48.4785 146.484 44.4336 146.484ZM73.7305 146.484C69.6855 146.484 66.4062 143.205 66.4062 139.16C66.4062 135.114 69.6855 131.836 73.7305 131.836C77.7754 131.836 81.0547 135.114 81.0547 139.16C81.0547 143.205 77.7754 146.484 73.7305 146.484ZM103.027 146.484C98.9824 146.484 95.7031 143.205 95.7031 139.16C95.7031 135.114 98.9824 131.836 103.027 131.836C107.072 131.836 110.352 135.114 110.352 139.16C110.352 143.205 107.072 146.484 103.027 146.484ZM110.352 109.863C110.352 113.912 107.076 117.188 103.027 117.188H44.4336C40.3853 117.188 37.1094 113.912 37.1094 109.863V65.918C37.1094 61.8696 40.3853 58.5938 44.4336 58.5938H103.027C107.076 58.5938 110.352 61.8696 110.352 65.918V109.863Z" fill="#AAD8D3"/>
<path d="M95.7031 73.2422H51.7578V102.539H95.7031V73.2422Z" fill="#AAD8D3"/>
<path d="M132.324 220.703V206.055H103.027V220.703C90.8921 220.703 81.0547 230.541 81.0547 242.676C81.0547 246.721 84.334 250 88.3789 250H146.973C151.018 250 154.297 246.721 154.297 242.676C154.297 230.541 144.459 220.703 132.324 220.703Z" fill="#AAD8D3"/>
<path d="M190.918 51.2695C182.843 51.2695 176.27 57.8428 176.27 65.918C176.27 73.9932 182.843 80.5664 190.918 80.5664C198.993 80.5664 205.566 73.9932 205.566 65.918C205.566 57.8428 198.993 51.2695 190.918 51.2695Z" fill="#AAD8D3"/>
<path d="M220.215 14.6484H161.621C149.486 14.6484 139.648 24.4858 139.648 36.6211V95.2148C139.648 107.35 149.486 117.188 161.621 117.188H220.215C232.35 117.188 242.188 107.35 242.188 95.2148V36.6211C242.188 24.4858 232.35 14.6484 220.215 14.6484ZM190.918 95.2148C174.76 95.2148 161.621 82.0757 161.621 65.918C161.621 49.7603 174.76 36.6211 190.918 36.6211C207.076 36.6211 220.215 49.7603 220.215 65.918C220.215 82.0757 207.076 95.2148 190.918 95.2148Z" fill="#AAD8D3"/>
<path d="M51.7578 0C43.6675 0 37.1094 6.55811 37.1094 14.6484H66.4062C66.4062 6.55811 59.8481 0 51.7578 0Z" fill="#AAD8D3"/>
</svg>
